<svg version="1.0" xmlns="http://www.w3.org/2000/svg"
 width="512.000000pt" height="512.000000pt" viewBox="0 0 512.000000 512.000000"
 preserveAspectRatio="xMidYMid meet">

<g transform="translate(0.000000,512.000000) scale(0.100000,-0.100000)"
fill="#842029" stroke="none">
<path d="M2330 5110 c-494 -48 -950 -230 -1350 -538 -195 -150 -448 -432 -594
-662 -63 -99 -186 -351 -230 -471 -49 -134 -102 -340 -128 -499 -31 -195 -31
-565 0 -760 45 -276 116 -498 237 -745 132 -269 269 -460 489 -681 221 -220
412 -357 681 -489 247 -121 469 -192 745 -237 195 -31 565 -31 760 0 276 45
498 116 745 237 269 132 460 269 681 489 220 221 357 412 489 681 88 179 132
296 180 476 63 240 78 371 78 649 0 278 -15 409 -78 649 -48 180 -92 297 -180
476 -132 269 -269 460 -489 681 -221 220 -412 357 -681 489 -246 121 -474 193
-740 235 -147 23 -475 34 -615 20z m495 -141 c364 -38 759 -180 1070 -387 591
-392 977 -1013 1070 -1717 21 -157 21 -453 0 -610 -49 -368 -182 -728 -383
-1030 -301 -453 -750 -797 -1257 -964 -271 -89 -477 -122 -765 -122 -288 0
-494 33 -765 122 -507 167 -956 511 -1257 964 -201 302 -335 662 -383 1030
-18 140 -21 425 -5 570 47 425 217 851 479 1199 95 125 257 294 378 394 92 76
208 162 218 162 3 0 5 -236 5 -525 0 -512 1 -526 20 -545 20 -20 33 -20 678
-20 361 0 662 4 668 8 32 21 34 51 34 601 0 314 -4 560 -9 574 -6 14 -23 29
-42 36 -22 8 -200 11 -573 11 l-541 1 46 24 c122 63 367 148 534 184 249 54
516 68 780 40z m-335 -869 l0 -480 -565 0 -565 0 0 480 0 480 565 0 565 0 0
-480z"/>
<path d="M2767 4442 c-15 -17 -17 -60 -17 -410 0 -431 -2 -415 63 -427 18 -3
164 -5 325 -3 l294 3 19 24 c18 22 19 44 19 407 0 371 -1 385 -20 404 -19 19
-33 20 -343 20 -301 0 -325 -1 -340 -18z m563 -407 l0 -295 -225 0 -225 0 0
295 0 295 225 0 225 0 0 -295z"/>
<path d="M530 3450 c-20 -20 -20 -33 -20 -602 0 -321 4 -588 8 -594 21 -32 52
-34 530 -34 470 0 480 0 506 21 l26 20 0 585 c0 571 0 584 -20 604 -19 19 -33
20 -515 20 -482 0 -496 -1 -515 -20z m920 -605 l0 -485 -405 0 -405 0 0 485 0
485 405 0 405 0 0 -485z"/>
<path d="M1725 3445 l-25 -24 0 -1029 c0 -1026 0 -1029 21 -1056 l20 -26 844
0 844 0 21 22 c20 22 20 29 20 1055 l0 1034 -25 24 -24 25 -836 0 -836 0 -24
-25z m1605 -1060 l0 -945 -745 0 -745 0 0 945 0 945 745 0 745 0 0 -945z"/>
<path d="M3595 3445 l-25 -24 0 -381 0 -381 25 -24 24 -25 349 0 c337 0 349 1
370 20 22 21 22 22 22 410 0 388 0 389 -22 410 -21 19 -33 20 -370 20 l-349 0
-24 -25z m635 -405 l0 -290 -260 0 -260 0 0 290 0 290 260 0 260 0 0 -290z"/>
<path d="M3613 2450 c-12 -5 -26 -18 -32 -29 -7 -13 -11 -192 -11 -543 0 -514
0 -525 20 -546 21 -22 21 -22 460 -22 427 0 441 1 460 20 19 19 20 33 20 549
0 506 -1 530 -19 552 l-19 24 -429 2 c-235 1 -438 -2 -450 -7z m785 -567 l-3
-438 -342 -3 -343 -2 0 440 0 440 345 0 345 0 -2 -437z"/>
<path d="M1030 2153 c-8 -3 -23 -12 -32 -21 -17 -14 -18 -46 -18 -399 0 -370
1 -384 20 -403 19 -19 33 -20 280 -20 247 0 261 1 280 20 19 19 20 33 20 403
0 377 0 384 -21 403 -19 17 -41 19 -268 21 -135 1 -253 -1 -261 -4z m420 -423
l0 -290 -170 0 -170 0 0 290 0 290 170 0 170 0 0 -290z"/>
<path d="M2249 1231 l-24 -19 -3 -379 c-2 -208 0 -388 3 -400 13 -55 -13 -53
621 -53 571 0 584 0 604 20 19 19 20 33 20 410 l0 391 -25 24 -24 25 -574 0
c-551 0 -576 -1 -598 -19z m1081 -421 l0 -300 -485 0 -485 0 0 300 0 300 485
0 485 0 0 -300z"/>
</g>
</svg>
