<?xml version="1.0" standalone="no"?>
<!DOCTYPE svg PUBLIC "-//W3C//DTD SVG 20010904//EN"
 "http://www.w3.org/TR/2001/REC-SVG-20010904/DTD/svg10.dtd">
<svg version="1.0" xmlns="http://www.w3.org/2000/svg"
 height="1.25rem" viewBox="0 0 32.000000 32.000000"
 preserveAspectRatio="xMidYMid meet">

<g transform="translate(0.000000,32.000000) scale(0.100000,-0.100000)"
fill="#FFF" stroke="none">
<path d="M115 311 c-3 -5 0 -13 6 -17 7 -4 0 -12 -18 -19 -17 -7 -43 -29 -58
-49 -24 -32 -27 -43 -23 -91 4 -44 11 -62 33 -85 60 -62 150 -62 210 0 35 37
47 122 20 155 -15 19 -16 17 -10 -32 6 -43 3 -59 -14 -86 -66 -108 -237 -50
-216 73 4 22 15 50 26 63 21 27 61 43 53 22 -10 -25 14 -25 30 0 9 13 16 28
16 32 -1 14 -49 43 -55 34z"/>
</g>
</svg>
